<svg data-v-fde0c5aa="" xmlns="http://www.w3.org/2000/svg" viewBox="0 0 300 300" class="iconLeftSlogan"><!----><defs data-v-fde0c5aa=""><!----></defs><rect data-v-fde0c5aa="" fill="transparent" x="0" y="0" width="300px" height="300px" class="logo-background-square"></rect><defs data-v-fde0c5aa=""><!----></defs><g data-v-fde0c5aa="" id="e8f435de-7dc2-4aa1-90aa-095dbe715717" fill="#2e3034" transform="matrix(2.824268696030931,0,0,2.824268696030931,114.71961954544898,113.96024321514996)"><path d="M7.67 4.31L0.21 4.31L0.21 5.67L3.18 5.67L3.18 14L4.70 14L4.70 5.67L7.67 5.67ZM14.24 10.57C14.22 8.48 12.70 6.99 10.57 6.99C8.44 6.99 6.89 8.48 6.89 10.56C6.89 12.63 8.44 14.13 10.57 14.13C12.26 14.13 13.73 13.03 14.13 11.51L12.67 11.51C12.40 12.33 11.56 12.95 10.58 12.95C9.39 12.95 8.48 12.15 8.30 11.00L14.20 11.00C14.22 10.86 14.24 10.71 14.24 10.57ZM10.58 8.16C11.72 8.16 12.63 8.88 12.87 9.90L8.34 9.90C8.60 8.86 9.46 8.16 10.58 8.16ZM22.44 11.14L21 11.14C20.79 12.15 19.94 12.88 18.86 12.88C17.57 12.88 16.65 11.91 16.65 10.56C16.65 9.21 17.57 8.23 18.86 8.23C19.92 8.23 20.79 8.97 20.99 9.97L22.44 9.97C22.23 8.25 20.73 6.99 18.86 6.99C16.73 6.99 15.18 8.48 15.18 10.56C15.18 12.63 16.73 14.13 18.86 14.13C20.73 14.13 22.23 12.88 22.44 11.14ZM27.37 6.99C26.42 6.99 25.65 7.41 25.20 8.15L25.20 4.31L23.77 4.31L23.77 14L25.20 14L25.20 9.97C25.20 8.86 25.89 8.13 26.95 8.13C27.99 8.13 28.66 8.86 28.66 9.97L28.66 14L30.10 14L30.10 9.77C30.10 8.11 28.95 6.99 27.37 6.99ZM38.72 14L40.38 14L36.61 4.31L34.76 4.31L31.01 14L32.65 14L33.42 11.91L37.95 11.91ZM33.88 10.65L35.69 5.80L37.49 10.65ZM42.98 5.25C42.98 4.75 42.60 4.41 42.07 4.41C41.52 4.41 41.16 4.75 41.16 5.25C41.16 5.74 41.52 6.09 42.07 6.09C42.60 6.09 42.98 5.74 42.98 5.25ZM41.36 7.11L41.36 14L42.78 14L42.78 7.11ZM50.01 4.31L50.01 8.11C49.41 7.41 48.52 6.99 47.50 6.99C45.56 6.99 44.13 8.48 44.13 10.56C44.13 12.63 45.56 14.13 47.50 14.13C48.52 14.13 49.41 13.71 50.01 13.01L50.01 14L51.44 14L51.44 4.31ZM47.80 12.88C46.52 12.88 45.60 11.91 45.60 10.56C45.60 9.21 46.52 8.23 47.80 8.23C49.08 8.23 50.01 9.21 50.01 10.56C50.01 11.91 49.08 12.88 47.80 12.88Z"></path></g><defs data-v-fde0c5aa=""><!----></defs><g data-v-fde0c5aa="" id="7301cb0e-9499-407a-a561-0265b6cbd37b" stroke="none" fill="#488eff" transform="matrix(1.0050438063739195,0,0,1.0050438063739195,38.99495619362608,117.83859819603458)"><path d="M59.919 54H60v-6c0-.129-.012-3.198-1.081-6.394L55.659 34h-5.318l-3.29 7.684C46.012 44.802 46 47.871 46 48v2h-3c-1.654 0-3-1.346-3-3v-4.165c4.774-2.772 8-7.928 8-13.835v-.142c1.72-.447 3-1.999 3-3.858 0-1.797-.677-2.932-1.056-3.428.034-.185.056-.374.056-.572v-2c0-9.925-8.075-18-18-18S14 9.075 14 19v2c0 .198.022.387.056.572C13.677 22.068 13 23.203 13 25c0 1.859 1.28 3.411 3 3.858V29c0 5.907 3.226 11.063 8 13.835V47c0 1.654-1.346 3-3 3h-5v-1.409c1.966-1.192 3-3.112 3-5.591 0-2.434-1.642-5.268-4.78-5.976L13 36.749V42h-2v-5.253l-1.222.277C6.641 37.738 5 40.57 5 43c0 2.479 1.034 4.398 3 5.591v2.515C3.876 53.006 1 57.169 1 62v1h2v-1c0-5.176 3.954-9.446 9-9.949V63h2V52h3v11h2V52h2c.408 0 .798-.063 1.178-.155C23.047 56.479 27.117 60 32 60s8.953-3.521 9.822-8.155c.38.092.77.155 1.178.155h2v11h2V52h3v11h2V52.051c5.046.504 9 4.773 9 9.949v1h2v-1c0-3.075-1.172-5.874-3.081-8zM9.445 47.104C7.8 46.287 7 44.945 7 43c0-1.285.683-2.737 2-3.535V44h6v-4.537c1.317.796 2 2.25 2 3.537 0 1.945-.8 3.287-2.445 4.104L14 47.38V50h-1c-1.037 0-2.039.146-3 .395V47.38l-.555-.276zM48 26.722v-2.58c.278-.182.534-.374.761-.579.131.363.239.839.239 1.437 0 .737-.405 1.375-1 1.722zM32 25c-10.01 0-15.994-2.032-15.999-3.997C16.197 19.983 22.014 18 32 18c9.992 0 15.811 1.985 16 3 0 1.966-5.985 4-16 4zM31 3.051V10h2V3.051c8.181.51 14.703 7.18 14.973 15.423C44.414 16.577 36.944 16 32 16s-12.414.577-15.973 2.473C16.297 10.231 22.819 3.56 31 3.051zM15 25a4.2 4.2 0 01.239-1.438c.227.206.483.398.761.579v2.58A1.99 1.99 0 0115 25zm3 4v-3.865C22.409 26.815 29.242 27 32 27s9.591-.185 14-1.865V29c0 7.72-6.28 14-14 14s-14-6.28-14-14zm14 29c-4.097 0-7.481-3.098-7.942-7.074C25.231 50.011 26 48.6 26 47v-3.178A15.894 15.894 0 0032 45c2.122 0 4.145-.424 6-1.178V47c0 1.6.769 3.011 1.942 3.926C39.481 54.902 36.097 58 32 58zm25.051-15.684c.934 2.8.949 5.656.949 5.685v4.272a11.975 11.975 0 00-3.427-1.73A2.991 2.991 0 0056 48a2.996 2.996 0 00-2-2.816V36h.341l2.71 6.316zM53 47a1.001 1.001 0 11-1 1c0-.552.449-1 1-1zm-5 1c0-.028.011-2.87.919-5.606L51.659 36H52v9.184A2.996 2.996 0 0050 48c0 .771.301 1.468.78 2H48v-2z"></path><path d="M33 30h9v-2H31v10h2zM19 14h2v2h-2zM23 13h2v2h-2z"></path></g><defs data-v-fde0c5aa=""><!----></defs><g data-v-fde0c5aa="" id="3f3598ee-25fe-4523-b0c8-605e001b9d0f" fill="#2e3034" transform="matrix(0.5471253319076612,0,0,0.5471253319076612,114.69446437273625,162.71819572173453)"><path d="M2.18 7.92L5.40 7.92L7.64 11.48L8.89 11.48L6.45 7.74C7.49 7.50 8.69 6.90 8.69 5.11C8.69 3.35 7.48 2.21 5.57 2.21L1.13 2.21L1.13 11.48L2.18 11.48ZM2.18 3.21L5.45 3.21C6.76 3.21 7.64 3.93 7.64 5.11C7.64 6.55 6.38 6.93 5.39 6.93L2.18 6.93ZM24.32 3.22L24.32 2.21L17.50 2.21L17.50 11.48L24.32 11.48L24.32 10.47L18.55 10.47L18.55 7.35L23.70 7.35L23.70 6.33L18.55 6.33L18.55 3.22ZM41.76 12.15C41.27 12.54 40.74 12.78 40.07 12.78C38.78 12.78 38.11 12.03 37.83 11.51C40.12 11.13 41.66 9.20 41.66 6.85C41.66 4.21 39.77 2.10 36.96 2.10C34.15 2.10 32.26 4.21 32.26 6.85C32.26 9.42 34.06 11.48 36.76 11.58C37.37 12.82 38.67 13.68 40.05 13.68C40.95 13.68 41.66 13.43 42.32 12.91ZM36.96 10.57C34.71 10.57 33.31 8.93 33.31 6.85C33.31 4.76 34.71 3.12 36.96 3.12C39.21 3.12 40.61 4.76 40.61 6.85C40.61 8.93 39.21 10.57 36.96 10.57ZM57.06 2.21L57.06 7.52C57.06 9.67 55.64 10.57 54.17 10.57C52.70 10.57 51.28 9.67 51.28 7.52L51.28 2.21L50.23 2.21L50.23 7.49C50.23 9.95 51.86 11.59 54.17 11.59C56.49 11.59 58.11 9.94 58.11 7.49L58.11 2.21ZM74.09 3.22L74.09 2.21L67.27 2.21L67.27 11.48L74.09 11.48L74.09 10.47L68.32 10.47L68.32 7.35L73.47 7.35L73.47 6.33L68.32 6.33L68.32 3.22ZM83.29 4.65C83.29 4.03 83.65 3.08 85.75 3.08C87.44 3.08 88.23 3.82 88.34 4.75L89.42 4.75C89.33 3.36 88.21 2.10 85.75 2.10C83.43 2.10 82.26 3.15 82.26 4.66C82.26 7.84 88.61 6.69 88.61 8.96C88.61 10.05 87.63 10.60 86.06 10.60C84.45 10.60 83.15 10.05 83.08 8.71L81.98 8.71C82.12 10.37 83.24 11.59 85.99 11.59C88.27 11.59 89.66 10.64 89.66 8.92C89.66 5.68 83.29 6.80 83.29 4.65ZM104.78 2.21L97.26 2.21L97.26 3.22L100.49 3.22L100.49 11.48L101.54 11.48L101.54 3.22L104.78 3.22ZM129.67 2.21L122.15 2.21L122.15 3.22L125.38 3.22L125.38 11.48L126.43 11.48L126.43 3.22L129.67 3.22ZM144.82 3.22L144.82 2.21L138.00 2.21L138.00 11.48L144.82 11.48L144.82 10.47L139.05 10.47L139.05 7.35L144.20 7.35L144.20 6.33L139.05 6.33L139.05 3.22ZM157.32 10.57C155.06 10.57 153.80 8.93 153.80 6.85C153.80 4.76 155.06 3.12 157.32 3.12C158.84 3.12 159.85 3.85 160.33 4.98L161.43 4.98C160.85 3.29 159.33 2.10 157.23 2.10C154.45 2.10 152.75 4.21 152.75 6.85C152.75 9.48 154.45 11.59 157.23 11.59C159.33 11.59 160.85 10.40 161.43 8.71L160.33 8.71C159.85 9.84 158.84 10.57 157.32 10.57ZM176.44 2.21L176.44 6.33L171.05 6.33L171.05 2.21L170.00 2.21L170.00 11.48L171.05 11.48L171.05 7.35L176.44 7.35L176.44 11.48L177.49 11.48L177.49 2.21ZM193.70 2.21L193.70 10.01L187.98 2.21L186.76 2.21L186.76 11.48L187.81 11.48L187.81 3.65L193.54 11.48L194.75 11.48L194.75 2.21ZM205.07 2.21L204.02 2.21L204.02 11.48L205.07 11.48ZM218.32 10.57C216.06 10.57 214.80 8.93 214.80 6.85C214.80 4.76 216.06 3.12 218.32 3.12C219.84 3.12 220.85 3.85 221.33 4.98L222.43 4.98C221.84 3.29 220.33 2.10 218.23 2.10C215.45 2.10 213.75 4.21 213.75 6.85C213.75 9.48 215.45 11.59 218.23 11.59C220.33 11.59 221.84 10.40 222.43 8.71L221.33 8.71C220.85 9.84 219.84 10.57 218.32 10.57ZM232.05 2.21L231 2.21L231 11.48L232.05 11.48ZM245.48 2.21L244.16 2.21L240.23 11.48L241.39 11.48L242.52 8.79L247.11 8.79L248.25 11.48L249.41 11.48ZM242.93 7.83L244.82 3.30L246.71 7.83ZM264.53 2.21L264.53 10.01L258.80 2.21L257.59 2.21L257.59 11.48L258.64 11.48L258.64 3.65L264.36 11.48L265.58 11.48L265.58 2.21Z"></path></g></svg>