<svg data-v-423bf9ae="" xmlns="http://www.w3.org/2000/svg" viewBox="0 0 313.01426354975075 60" class="font"><!----><!----><!----><g data-v-423bf9ae="" id="ef9efb1e-1133-4b30-92e3-9dfa99e7fe33" fill="black" transform="matrix(6.109979823280842,0,0,6.109979823280842,-1.2830989030371711,-26.33401221188742)"><path d="M7.67 4.31L0.21 4.31L0.21 5.67L3.18 5.67L3.18 14L4.70 14L4.70 5.67L7.67 5.67ZM14.24 10.57C14.22 8.48 12.70 6.99 10.57 6.99C8.44 6.99 6.89 8.48 6.89 10.56C6.89 12.63 8.44 14.13 10.57 14.13C12.26 14.13 13.73 13.03 14.13 11.51L12.67 11.51C12.40 12.33 11.56 12.95 10.58 12.95C9.39 12.95 8.48 12.15 8.30 11.00L14.20 11.00C14.22 10.86 14.24 10.71 14.24 10.57ZM10.58 8.16C11.72 8.16 12.63 8.88 12.87 9.90L8.34 9.90C8.60 8.86 9.46 8.16 10.58 8.16ZM22.44 11.14L21 11.14C20.79 12.15 19.94 12.88 18.86 12.88C17.57 12.88 16.65 11.91 16.65 10.56C16.65 9.21 17.57 8.23 18.86 8.23C19.92 8.23 20.79 8.97 20.99 9.97L22.44 9.97C22.23 8.25 20.73 6.99 18.86 6.99C16.73 6.99 15.18 8.48 15.18 10.56C15.18 12.63 16.73 14.13 18.86 14.13C20.73 14.13 22.23 12.88 22.44 11.14ZM27.37 6.99C26.42 6.99 25.65 7.41 25.20 8.15L25.20 4.31L23.77 4.31L23.77 14L25.20 14L25.20 9.97C25.20 8.86 25.89 8.13 26.95 8.13C27.99 8.13 28.66 8.86 28.66 9.97L28.66 14L30.10 14L30.10 9.77C30.10 8.11 28.95 6.99 27.37 6.99ZM38.72 14L40.38 14L36.61 4.31L34.76 4.31L31.01 14L32.65 14L33.42 11.91L37.95 11.91ZM33.88 10.65L35.69 5.80L37.49 10.65ZM42.98 5.25C42.98 4.75 42.60 4.41 42.07 4.41C41.52 4.41 41.16 4.75 41.16 5.25C41.16 5.74 41.52 6.09 42.07 6.09C42.60 6.09 42.98 5.74 42.98 5.25ZM41.36 7.11L41.36 14L42.78 14L42.78 7.11ZM50.01 4.31L50.01 8.11C49.41 7.41 48.52 6.99 47.50 6.99C45.56 6.99 44.13 8.48 44.13 10.56C44.13 12.63 45.56 14.13 47.50 14.13C48.52 14.13 49.41 13.71 50.01 13.01L50.01 14L51.44 14L51.44 4.31ZM47.80 12.88C46.52 12.88 45.60 11.91 45.60 10.56C45.60 9.21 46.52 8.23 47.80 8.23C49.08 8.23 50.01 9.21 50.01 10.56C50.01 11.91 49.08 12.88 47.80 12.88Z"></path></g><!----><!----></svg>